<svg width="1234" height="1024" viewBox="0 0 1024 1024" fill="none" xmlns="http://www.w3.org/2000/svg">
<circle cx="512" cy="512" r="512" fill=""/>
<path d="M233.563 453.521L438.395 507.426L277.455 531.929C203.326 531.929 165.285 577.666 155.531 600.535C108.713 698.544 204.301 755.716 257.947 772.051C293.061 830.856 324.599 855.359 335.978 860.259C429.616 891.622 474.631 831.115 487.164 796.553C519.293 681.236 486.062 631.007 506.671 531.929C572.523 674.249 629.938 735.78 731.011 850.458L757.495 830.857C630.389 731.21 581.453 655.567 521.302 522.128C638.039 535.192 739.941 606.555 809.042 571.132C938.814 507.426 860.619 372.583 793.867 364.97C808.498 340.467 814.464 231.493 746.187 206.99C691.565 187.388 622.966 208.498 609.087 242.802L511.548 448.621L521.302 242.802C524.72 185.053 475.606 152.09 453.025 144.793C374.994 109.509 313.219 188.897 292.086 233.001C229.661 233.001 188.045 272.204 175.04 291.806C128.661 361.71 204.301 440.454 233.563 453.521Z" fill="#10B581"/>
</svg>
